<?xml version="1.0" encoding="utf-8"?>
<!-- Generator: Adobe Illustrator 23.0.3, SVG Export Plug-In . SVG Version: 6.00 Build 0)  -->
<svg version="1.1" id="Calque_1" xmlns="http://www.w3.org/2000/svg" xmlns:xlink="http://www.w3.org/1999/xlink" x="0px" y="0px"
	 viewBox="0 0 60 60" style="enable-background:new 0 0 60 60;" xml:space="preserve">
<style type="text/css">
	.st0{fill:#FFFFFF;}
	.st1{fill:#00404C;}
</style>
<path class="st0" d="M58.8,30c0,15.9-12.4,28.8-27.8,28.8S2.1,45.3,1.4,28.1C0.7,10.6,7.2,0.4,23.3,0.4C38.7,0.4,58.8,14.1,58.8,30z
	"/>
<title>-</title>
<path class="st1" d="M26.9,32.7c-3.6-1.1-7.3-1.8-11-2.1c-6-0.5-12.2,0.2-14.4,0.4c0.4,2.9,1.2,5.8,2.4,8.5l4-0.8
	c2.1-0.3,4.2-0.5,6.2-0.5c1.5-0.1,3,0,4.6,0.1l-0.8-2.8c12,0,21.8,4.5,28.4,8.8l5.3,3.9l0,0c1-1.3,1.8-2.6,2.7-3.9
	C42.1,33.5,26.1,28.6,26.1,28.6L26.9,32.7z M19.7,15.3l0,3.7C14.4,17,9,15.6,3.4,14.7c-0.3,0-0.6-0.1-0.8-0.1
	c-0.1,0.3-0.1,0.6-0.2,0.9c-0.6,2.1-1,4.2-1.2,6.3c0.6,0,1.2,0,1.7,0.1l5.4,0.4c2.5,0.3,4.7,0.6,6.5,1c4.5,0.9,6.9,1.9,6.9,1.9
	l-0.1-3c10.2,3,18.5,8.3,24.9,13.6l5.3,4.8c1,1,2,2,2.8,2.9c0.8-1.4,1.5-2.8,2.1-4.3C42.4,23,19.7,15.3,19.7,15.3z M22.6,41l0.8,3
	c-4.7,0-9.5,0.8-14,2.2c-0.5,0.2-1.1,0.4-1.6,0.6c10.3,14.2,30,19,43.5,1.9c-0.9-0.6-1.9-1.2-3.1-1.8C36,40.4,22.7,41,22.6,41
	L22.6,41z M6.3,7.2c1.6,0.4,2.6,0.7,2.6,0.7c0.7,0.3,1.4,0.5,2,0.7c2.8,1,4.3,1.8,4.3,1.8V7c13.8,5.2,24.3,13.1,31.7,20.3l5.3,5.5
	c2,2.2,3.6,4.3,4.9,6C68.7,8.4,21.2-10.4,6.3,7.2z"/>
</svg>
